# xmcd CD database file generated by OrangeCD 5.2
#
# Track frame offsets:
#	150
#	11897
#	23615
#	34505
#	40765
#	50020
#	60285
#	66290
#	78267
#	90422
#	100495
#
# Disc length: 1464 seconds
#
# Revision: 2
# Processed by: cddbd v1.5.1PL0 Copyright (c) Steve Scherf et al.
# Submitted via: OrangeCD 5.2
#
DISCID=7e05b60b
DTITLE=Hank Williams - Move It On Over - Disc Two
DYEAR=1999
DGENRE=Country
TTITLE0=Lost On The River
TTITLE1=I Heard My Mother Praying For Me
TTITLE2=Crazy Heart
TTITLE3=Dear John
TTITLE4=My Main Trial Is Yet To Come
TTITLE5=The Log Train
TTITLE6=Fool  Abaut You
TTITLE7=I Can't Escape From You
TTITLE8=The Wild Side Of Life
TTITLE9=You Better Keep It on Your Mind
TTITLE10=No, Not Now
EXTD=YEAR: 1999 ID3G: 2
EXTT0=
EXTT1=
EXTT2=
EXTT3=
EXTT4=
EXTT5=
EXTT6=
EXTT7=
EXTT8=
EXTT9=
EXTT10=
PLAYORDER=
